<svg width="382" height="138" viewBox="0 0 382 138" fill="none" xmlns="http://www.w3.org/2000/svg">
<g filter="url(#filter0_d_1246_3021)">
<mask id="path-1-inside-1_1246_3021" fill="white">
<path d="M9 17C9 12.5817 12.5817 9 17 9H365C369.418 9 373 12.5817 373 17V121C373 125.418 369.418 129 365 129H17C12.5817 129 9 125.418 9 121V17Z"/>
</mask>
<path d="M9 17C9 12.5817 12.5817 9 17 9H365C369.418 9 373 12.5817 373 17V121C373 125.418 369.418 129 365 129H17C12.5817 129 9 125.418 9 121V17Z" fill="#1C1A17"/>
<path d="M9 17C9 12.5817 12.5817 9 17 9H365C369.418 9 373 12.5817 373 17V121C373 125.418 369.418 129 365 129H17C12.5817 129 9 125.418 9 121V17Z" fill="url(#paint0_linear_1246_3021)"/>
<path d="M17 9V10H365V9V8H17V9ZM373 17H372V121H373H374V17H373ZM365 129V128H17V129V130H365V129ZM9 121H10V17H9H8V121H9ZM17 129V128C13.134 128 10 124.866 10 121H9H8C8 125.971 12.0294 130 17 130V129ZM373 121H372C372 124.866 368.866 128 365 128V129V130C369.971 130 374 125.971 374 121H373ZM365 9V10C368.866 10 372 13.134 372 17H373H374C374 12.0294 369.971 8 365 8V9ZM17 9V8C12.0294 8 8 12.0294 8 17H9H10C10 13.134 13.134 10 17 10V9Z" fill="#02E2AC" mask="url(#path-1-inside-1_1246_3021)"/>
<path d="M82.82 87H77.492V53.496H90.02C93.22 53.496 95.652 54.392 97.316 56.184C99.012 57.976 99.86 60.44 99.86 63.576C99.86 66.136 99.236 68.248 97.988 69.912C96.74 71.576 94.948 72.6 92.612 72.984L100.34 87H94.388L87.284 73.464H82.82V87ZM89.252 69.144C92.58 69.144 94.244 67.624 94.244 64.584V62.52C94.244 59.48 92.58 57.96 89.252 57.96H82.82V69.144H89.252ZM117.859 87.576C115.971 87.576 114.275 87.272 112.771 86.664C111.267 86.056 110.003 85.192 108.979 84.072C107.955 82.952 107.171 81.608 106.627 80.04C106.083 78.44 105.811 76.648 105.811 74.664C105.811 72.68 106.083 70.888 106.627 69.288C107.203 67.688 107.987 66.328 108.979 65.208C110.003 64.056 111.235 63.176 112.675 62.568C114.115 61.96 115.715 61.656 117.475 61.656C119.203 61.656 120.771 61.96 122.179 62.568C123.587 63.144 124.787 63.976 125.779 65.064C126.771 66.152 127.523 67.448 128.035 68.952C128.579 70.456 128.851 72.12 128.851 73.944V75.912H111.091V76.728C111.091 78.68 111.699 80.28 112.915 81.528C114.131 82.744 115.811 83.352 117.955 83.352C119.555 83.352 120.915 83.016 122.035 82.344C123.187 81.64 124.115 80.712 124.819 79.56L128.083 82.44C127.251 83.88 125.971 85.096 124.243 86.088C122.547 87.08 120.419 87.576 117.859 87.576ZM117.475 65.64C116.547 65.64 115.683 65.8 114.883 66.12C114.115 66.44 113.443 66.904 112.867 67.512C112.323 68.088 111.891 68.776 111.571 69.576C111.251 70.376 111.091 71.256 111.091 72.216V72.552H123.523V72.072C123.523 70.12 122.963 68.568 121.843 67.416C120.755 66.232 119.299 65.64 117.475 65.64ZM156.019 87C154.515 87 153.379 86.616 152.611 85.848C151.875 85.08 151.427 84.072 151.267 82.824H151.027C150.547 84.328 149.667 85.496 148.387 86.328C147.139 87.16 145.539 87.576 143.587 87.576C141.059 87.576 139.043 86.92 137.539 85.608C136.035 84.264 135.283 82.424 135.283 80.088C135.283 77.688 136.163 75.864 137.923 74.616C139.715 73.336 142.451 72.696 146.131 72.696H150.883V70.776C150.883 67.416 149.107 65.736 145.555 65.736C143.955 65.736 142.659 66.056 141.667 66.696C140.675 67.304 139.843 68.12 139.171 69.144L136.051 66.6C136.755 65.256 137.939 64.104 139.603 63.144C141.267 62.152 143.411 61.656 146.035 61.656C149.171 61.656 151.635 62.408 153.427 63.912C155.219 65.416 156.115 67.592 156.115 70.44V82.872H159.235V87H156.019ZM145.075 83.736C146.771 83.736 148.163 83.352 149.251 82.584C150.339 81.816 150.883 80.824 150.883 79.608V76.008H146.227C142.451 76.008 140.563 77.144 140.563 79.416V80.376C140.563 81.496 140.963 82.344 141.763 82.92C142.563 83.464 143.667 83.736 145.075 83.736ZM181.65 82.776H181.362C180.626 84.28 179.65 85.464 178.434 86.328C177.218 87.16 175.698 87.576 173.874 87.576C170.962 87.576 168.642 86.488 166.914 84.312C165.186 82.136 164.322 78.904 164.322 74.616C164.322 70.328 165.186 67.096 166.914 64.92C168.642 62.744 170.962 61.656 173.874 61.656C175.698 61.656 177.218 62.088 178.434 62.952C179.65 63.784 180.626 64.952 181.362 66.456H181.65V51.48H186.882V87H181.65V82.776ZM176.034 83.304C176.802 83.304 177.522 83.208 178.194 83.016C178.866 82.824 179.458 82.536 179.97 82.152C180.482 81.768 180.882 81.304 181.17 80.76C181.49 80.184 181.65 79.512 181.65 78.744V70.488C181.65 69.72 181.49 69.064 181.17 68.52C180.882 67.944 180.482 67.464 179.97 67.08C179.458 66.696 178.866 66.408 178.194 66.216C177.522 66.024 176.802 65.928 176.034 65.928C174.05 65.928 172.514 66.536 171.426 67.752C170.37 68.968 169.842 70.584 169.842 72.6V76.632C169.842 78.648 170.37 80.264 171.426 81.48C172.514 82.696 174.05 83.304 176.034 83.304ZM229.408 61.224H228.976V87H224.272V53.496H231.184L241.024 79.272H241.456V53.496H246.16V87H239.248L229.408 61.224ZM264.688 87.576C262.864 87.576 261.216 87.272 259.744 86.664C258.304 86.056 257.072 85.192 256.048 84.072C255.056 82.952 254.288 81.592 253.744 79.992C253.2 78.392 252.928 76.6 252.928 74.616C252.928 72.632 253.2 70.84 253.744 69.24C254.288 67.64 255.056 66.28 256.048 65.16C257.072 64.04 258.304 63.176 259.744 62.568C261.216 61.96 262.864 61.656 264.688 61.656C266.512 61.656 268.144 61.96 269.584 62.568C271.056 63.176 272.288 64.04 273.28 65.16C274.304 66.28 275.088 67.64 275.632 69.24C276.176 70.84 276.448 72.632 276.448 74.616C276.448 76.6 276.176 78.392 275.632 79.992C275.088 81.592 274.304 82.952 273.28 84.072C272.288 85.192 271.056 86.056 269.584 86.664C268.144 87.272 266.512 87.576 264.688 87.576ZM264.688 83.448C266.608 83.448 268.128 82.872 269.248 81.72C270.4 80.536 270.976 78.792 270.976 76.488V72.744C270.976 70.44 270.4 68.712 269.248 67.56C268.128 66.376 266.608 65.784 264.688 65.784C262.768 65.784 261.232 66.376 260.08 67.56C258.96 68.712 258.4 70.44 258.4 72.744V76.488C258.4 78.792 258.96 80.536 260.08 81.72C261.232 82.872 262.768 83.448 264.688 83.448ZM280.719 62.232H285.183L287.583 83.064H288.015L291.711 62.232H296.799L300.447 83.064H300.879L303.327 62.232H307.599L304.143 87H297.711L294.399 67.8H293.967L290.607 87H284.175L280.719 62.232Z" fill="#02E2AC"/>
</g>
<defs>
<filter id="filter0_d_1246_3021" x="0" y="0" width="382" height="138" filterUnits="userSpaceOnUse" color-interpolation-filters="sRGB">
<feFlood flood-opacity="0" result="BackgroundImageFix"/>
<feColorMatrix in="SourceAlpha" type="matrix" values="0 0 0 0 0 0 0 0 0 0 0 0 0 0 0 0 0 0 127 0" result="hardAlpha"/>
<feMorphology radius="3" operator="erode" in="SourceAlpha" result="effect1_dropShadow_1246_3021"/>
<feOffset/>
<feGaussianBlur stdDeviation="6"/>
<feComposite in2="hardAlpha" operator="out"/>
<feColorMatrix type="matrix" values="0 0 0 0 0.00784314 0 0 0 0 0.886275 0 0 0 0 0.67451 0 0 0 0.6 0"/>
<feBlend mode="normal" in2="BackgroundImageFix" result="effect1_dropShadow_1246_3021"/>
<feBlend mode="normal" in="SourceGraphic" in2="effect1_dropShadow_1246_3021" result="shape"/>
</filter>
<linearGradient id="paint0_linear_1246_3021" x1="202.784" y1="9" x2="202.784" y2="129" gradientUnits="userSpaceOnUse">
<stop offset="0.673077" stop-color="#1C1A17" stop-opacity="0"/>
<stop offset="1" stop-color="#008F73"/>
</linearGradient>
</defs>
</svg>
